<svg xmlns="http://www.w3.org/2000/svg" viewBox="0 0 64 64">
  <defs>
    <linearGradient id="gold" x1="0" y1="0" x2="1" y2="1">
      <stop offset="0" stop-color="#fde68a"/>
      <stop offset="0.45" stop-color="#f59e0b"/>
      <stop offset="1" stop-color="#b45309"/>
    </linearGradient>
    <linearGradient id="bg" x1="0" y1="0" x2="0" y2="1">
      <stop offset="0" stop-color="#1e293b"/>
      <stop offset="1" stop-color="#0b1120"/>
    </linearGradient>
  </defs>
  <!-- dark felt background -->
  <rect x="2" y="2" width="60" height="60" rx="14" fill="url(#bg)" stroke="#334155" stroke-width="2"/>
  <!-- spade body -->
  <path d="M32 7 C32 7 10 28 10 40 C10 48 16 54 23 54 C27 54 30 52 32 49.5 C34 52 37 54 41 54 C48 54 54 48 54 40 C54 28 32 7 32 7 Z" fill="url(#gold)"/>
  <!-- spade stem -->
  <path d="M30.4 49 C30 53 27.5 56.5 23.5 59 L40.5 59 C36.5 56.5 34 53 33.6 49 Z" fill="url(#gold)"/>
  <!-- highlight -->
  <path d="M26 20 C22 26 18 33 16 38 C16.5 32 20 25 26 20 Z" fill="#fff7db" opacity="0.55"/>
</svg>
